<?xml version="1.0" standalone="no"?>
<!DOCTYPE svg PUBLIC "-//W3C//DTD SVG 20010904//EN"
 "http://www.w3.org/TR/2001/REC-SVG-20010904/DTD/svg10.dtd">
<svg version="1.0" xmlns="http://www.w3.org/2000/svg"
 width="512.000000pt" height="512.000000pt" viewBox="0 0 512.000000 512.000000"
 preserveAspectRatio="xMidYMid meet">
<metadata>
Created by potrace 1.14, written by Peter Selinger 2001-2017
</metadata>
<g transform="translate(0.000000,512.000000) scale(0.100000,-0.100000)"
fill="#000000" stroke="none">
<path d="M2475 4634 c-90 -5 -279 -33 -375 -55 -292 -68 -590 -214 -827 -406
-353 -287 -611 -697 -712 -1133 -89 -386 -67 -804 61 -1169 42 -122 147 -335
214 -438 108 -166 290 -369 433 -482 34 -27 41 -30 41 -14 0 10 -20 32 -43 50
-116 87 -303 298 -410 464 -153 236 -261 524 -304 807 -19 133 -22 441 -4 572
41 305 158 615 324 865 144 215 359 430 572 572 244 162 540 276 833 320 144
21 460 21 604 0 631 -95 1178 -475 1492 -1036 115 -207 188 -418 232 -676 24
-140 24 -490 0 -630 -75 -439 -270 -824 -572 -1130 -52 -53 -181 -165 -233
-201 -1 -2 0 -8 4 -14 9 -14 42 10 168 124 202 183 341 368 461 611 160 325
218 571 218 925 0 261 -24 415 -104 660 -37 117 -147 344 -223 464 -145 230
-381 466 -618 620 -103 67 -316 172 -438 214 -232 81 -558 129 -794 116z"/>
<path d="M2333 4303 l-53 -4 0 -218 0 -218 46 -7 c26 -3 140 -6 254 -6 114 0
228 3 254 6 l46 7 0 217 0 217 -77 7 c-76 6 -373 5 -470 -1z"/>
<path d="M2450 3694 c-14 -2 -52 -9 -85 -15 -392 -68 -740 -374 -869 -764 -94
-287 -65 -622 78 -891 51 -95 98 -162 104 -145 2 6 -14 39 -36 74 -122 193
-174 371 -175 602 -1 239 58 435 189 631 273 411 804 588 1287 430 377 -125
673 -476 738 -876 34 -214 5 -431 -87 -643 -38 -87 -38 -87 -24 -87 24 0 103
200 132 335 17 82 17 342 -1 430 -91 452 -434 802 -886 901 -67 15 -313 27
-365 18z"/>
<path d="M2280 2790 c-12 -7 -14 -46 -14 -229 0 -121 3 -223 8 -228 10 -11
602 -10 613 0 4 5 8 107 8 228 0 184 -2 221 -15 229 -20 13 -580 13 -600 0z"/>
<path d="M3893 2783 l-82 -4 -6 -43 c-9 -58 -2 -382 8 -393 11 -11 563 -11
574 0 9 9 12 422 3 431 -8 7 -395 14 -497 9z"/>
<path d="M1820 1968 c-6 -13 -111 -282 -234 -598 l-224 -575 126 -3 c68 -1
127 -1 129 2 3 3 26 62 52 133 l47 128 239 0 239 0 51 -132 50 -133 134 0
c103 0 132 3 128 13 -3 6 -111 275 -240 597 l-235 585 -126 3 c-123 3 -126 2
-136 -20z m215 -493 c35 -93 66 -178 70 -187 7 -17 -4 -18 -149 -18 -86 0
-156 3 -156 8 0 9 139 392 147 406 4 5 10 -1 16 -15 5 -13 37 -100 72 -194z"/>
<path d="M2685 1978 c-3 -7 -4 -276 -3 -598 l3 -585 123 -3 122 -3 0 252 0
252 75 -6 c135 -12 138 -15 355 -334 l111 -163 145 0 144 0 -42 68 c-183 294
-244 376 -320 426 l-48 33 54 12 c117 26 211 111 242 218 50 171 -37 358 -187
408 -66 22 -253 34 -537 35 -177 0 -234 -3 -237 -12z m649 -218 c67 -34 95
-130 59 -200 -32 -62 -70 -73 -280 -78 l-183 -5 0 152 0 152 188 -3 c142 -2
194 -7 216 -18z"/>
<path d="M3235 1657 c-16 -13 -50 -36 -75 -50 -40 -24 -42 -27 -19 -27 26 0
149 75 149 91 0 16 -24 9 -55 -14z"/>
<path d="M2403 1447 c7 -21 187 -38 187 -18 0 5 -26 12 -57 16 -32 3 -75 7
-96 9 -26 3 -37 1 -34 -7z"/>
<path d="M1660 704 c0 -9 148 -74 240 -106 236 -81 417 -110 680 -110 307 0
557 50 818 164 120 52 68 55 -64 3 -132 -52 -290 -96 -439 -121 -140 -24 -491
-24 -630 0 -186 32 -361 82 -494 143 -68 30 -111 41 -111 27z"/>
</g>
</svg>
